<?xml version="1.0" encoding="UTF-8" standalone="no"?>
<svg
   width="32"
   height="32"
   viewBox="0 0 32 32"
   version="1.1"
   id="svg74"
   sodipodi:docname="vectorized SA no nodes Inkscape.svg"
   inkscape:version="1.4.3 (0d15f75, 2025-12-25)"
   xmlns:inkscape="http://www.inkscape.org/namespaces/inkscape"
   xmlns:sodipodi="http://sodipodi.sourceforge.net/DTD/sodipodi-0.dtd"
   xmlns="http://www.w3.org/2000/svg"
   xmlns:svg="http://www.w3.org/2000/svg">
  <defs
     id="defs74">
    <linearGradient
       id="swatch75"
       inkscape:swatch="solid">
      <stop
         style="stop-color:#1ff0ff;stop-opacity:1;"
         offset="0"
         id="stop75" />
    </linearGradient>
  </defs>
  <sodipodi:namedview
     id="namedview74"
     pagecolor="#ffffff"
     bordercolor="#000000"
     borderopacity="0.25"
     inkscape:showpageshadow="2"
     inkscape:pageopacity="0.0"
     inkscape:pagecheckerboard="0"
     inkscape:deskcolor="#d1d1d1"
     inkscape:zoom="10.79"
     inkscape:cx="19.045412"
     inkscape:cy="22.1038"
     inkscape:window-width="1920"
     inkscape:window-height="1051"
     inkscape:window-x="-9"
     inkscape:window-y="-9"
     inkscape:window-maximized="1"
     inkscape:current-layer="svg74"
     showgrid="true" />
  <path
     fill="white"
     d="M 0,-0.1619478 H 32 V 32 H 0 Z"
     id="path1"
     style="fill:#000000;fill-opacity:1;stroke-width:0.0315765" />
  <path
     fill="#00052A"
     d="m 13.88764,3.7292339 c 0.664635,0.0076 1.355137,-0.02496 2.021791,-0.03948 0.502797,1.7202 1.023377,3.7591991 1.495844,5.5199471 l 2.218767,8.223835 -2.354871,-0.03404 c -0.704936,-2.72755 -1.594578,-6.072417 -2.359614,-8.738622 -0.600415,2.024698 -1.112144,4.213424 -1.685639,6.262689 -1.418796,5.069621 -2.742346,10.438152 -4.1695759,15.476848 l -0.5868189,0.01262 -8.3762459,-0.0012 7.5173e-4,-7.655641 2.07282977,-0.0013 c 0.045389,1.087395 0.020502,2.773543 0.020573,3.89253 1.8494269,0.01702 3.6988538,0.01413 5.5482765,-0.0088 0.6865978,-2.306734 1.4693454,-5.460823 2.1156446,-7.869044 z"
     id="path2"
     style="fill:#1feaff;fill-opacity:1;stroke-width:0.0951937" />
  <path
     fill="#00052A"
     d="m 0.09776235,3.6897219 10.60073265,0.01303 c -0.0086,2.5320791 -0.0089,5.0641581 -7.51e-4,7.5961121 l -2.0764583,-0.01841 c 0.0049,-1.300671 7.517e-4,-2.601482 -0.012893,-3.902026 l -6.4386109,-0.0038 0.00826,6.247087 -0.012301,1.53786 7.7975797,0.03494 c -0.2056185,0.982403 -0.7129531,2.7616 -0.9896961,3.710077 -2.9272556,-0.08184 -5.9477397,-0.0114 -8.88224638,-0.0114 0.02962032,-5.036741 -0.00153,-10.155358 0.0065279,-15.2040561 z"
     id="path3"
     style="fill:#1ee9ff;fill-opacity:1;stroke-width:0.0951937" />
  <path
     fill="#00FE54"
     d="m 31.238672,-0.3121406 0.109997,-0.00505 0.05365,0.1211982 c -0.02672,0.538823 -0.232889,1.9825873 -0.310703,2.5773053 L 30.398733,7.567118 C 30.117036,7.184252 29.567728,6.145449 29.305556,5.6700379 26.511411,11.00791 23.698632,16.311718 20.867321,21.581095 l -8.795233,0.01317 c -0.06094,-0.0038 -0.07147,-0.0256 -0.132266,-0.07075 -0.02922,-0.418091 0.578382,-2.374168 0.70654,-2.825669 2.562383,-0.03707 5.124831,-0.03909 7.687209,-0.0062 0.75995,-1.35851 1.562841,-2.954712 2.316032,-4.365207 L 28.278847,3.7446189 c -0.339644,-0.644093 -0.659973,-1.254665 -0.984467,-1.927879 1.320541,-0.6716493 2.635522,-1.3813863 3.944292,-2.129198 z"
     id="path4"
     style="fill:#1fff5b;fill-opacity:1;stroke-width:0.0951937" />
  <path
     fill="#00052A"
     d="m 18.280741,23.044004 c 0.75479,0.05006 1.58251,0.02434 2.342808,0.02712 0.599442,2.373651 1.344194,4.909767 1.97145,7.306687 -0.712808,0.05978 -1.594019,0.02308 -2.320219,0.03065 -0.306936,-0.935222 -0.706961,-2.513378 -0.983701,-3.542431 -0.309938,-1.152382 -0.749492,-2.671136 -1.010338,-3.822093 z"
     id="path7"
     style="fill:#1fe8ff;fill-opacity:1;stroke-width:0.0951937" />
</svg>
